<svg width="126" height="126" viewBox="0 0 126 126" fill="none" xmlns="http://www.w3.org/2000/svg">
<path d="M63.0092 0.653503C28.6145 0.653503 0.653381 28.6148 0.653381 63.0094C0.653381 97.404 28.6145 125.347 63.0092 125.347C97.4036 125.347 125.347 97.404 125.347 63.0094C125.347 28.6148 97.4036 0.653503 63.0092 0.653503ZM63.0092 6.88797C94.0346 6.88797 119.112 31.9841 119.112 63.0094C119.112 94.0346 94.0346 119.113 63.0092 119.113C31.9839 119.113 6.88768 94.0346 6.88768 63.0094C6.88768 31.9841 31.9839 6.88797 63.0092 6.88797ZM53.6636 34.9427C53.2517 34.9404 52.8435 35.0194 52.4624 35.1757C52.0813 35.3321 51.735 35.5625 51.4435 35.8535C51.152 36.1444 50.921 36.4905 50.7639 36.8713C50.6068 37.2521 50.5268 37.6599 50.5283 38.0718V44.3002H38.0655C36.3386 44.3002 34.9484 45.6904 34.9484 47.4174C34.9484 49.1442 36.3386 50.5347 38.0655 50.5347H41.1889V87.935C41.1866 88.3449 41.2651 88.751 41.4199 89.1305C41.5747 89.51 41.8029 89.8554 42.0913 90.1466C42.3797 90.4378 42.7227 90.669 43.1006 90.8275C43.4786 90.9861 43.8841 91.0686 44.2939 91.0702H81.7123C82.1222 91.0686 82.5277 90.986 82.9057 90.8275C83.2836 90.669 83.6266 90.4378 83.915 90.1466C84.2034 89.8554 84.4316 89.51 84.5864 89.1305C84.7413 88.751 84.8198 88.3449 84.8175 87.935V50.5347H87.9405C89.6674 50.5347 91.0578 49.1444 91.0578 47.4174C91.0578 45.6905 89.6674 44.3002 87.9405 44.3002H75.478V38.0718C75.4796 37.6599 75.3995 37.2518 75.2424 36.871C75.0853 36.4902 74.8543 36.1444 74.5627 35.8535C74.2712 35.5625 73.9248 35.3321 73.5437 35.1757C73.1626 35.0194 72.7543 34.9403 72.3424 34.9427H53.6636ZM56.7687 41.1768H69.2374V44.3002H56.7687V41.1768ZM47.4233 50.5347H78.583V84.8296H47.4233V50.5347ZM56.7444 56.7141C56.6286 56.7155 56.5129 56.7236 56.398 56.7379C55.6331 56.8326 54.9304 57.2071 54.4255 57.7895C53.9207 58.3719 53.6494 59.1208 53.6642 59.8914V75.4711C53.6548 75.8864 53.7284 76.2995 53.8808 76.686C54.0332 77.0725 54.2613 77.4244 54.5517 77.7215C54.8421 78.0186 55.1889 78.2546 55.5718 78.4158C55.9547 78.5769 56.3659 78.6603 56.7814 78.6603C57.1968 78.6603 57.608 78.5769 57.9909 78.4158C58.3738 78.2546 58.7207 78.0186 59.0111 77.7215C59.3014 77.4244 59.5295 77.0725 59.6819 76.686C59.8343 76.2995 59.908 75.8864 59.8985 75.4711V59.8914C59.9058 59.4744 59.8294 59.0602 59.6737 58.6733C59.5181 58.2863 59.2864 57.9343 58.9923 57.6385C58.6982 57.3427 58.3478 57.109 57.9618 56.9511C57.5758 56.7932 57.162 56.7146 56.745 56.7195L56.7444 56.7141ZM69.1949 56.7141C69.087 56.7164 68.9793 56.7244 68.8721 56.7379C68.1018 56.8257 67.3917 57.1974 66.8807 57.7805C66.3696 58.3636 66.0942 59.1162 66.1082 59.8914V75.4711C66.0987 75.8864 66.1724 76.2995 66.3248 76.686C66.4772 77.0725 66.7053 77.4244 66.9957 77.7215C67.2861 78.0186 67.6329 78.2546 68.0158 78.4158C68.3987 78.5769 68.8099 78.6603 69.2253 78.6603C69.6408 78.6603 70.052 78.5769 70.4349 78.4158C70.8178 78.2546 71.1646 78.0186 71.455 77.7215C71.7454 77.4244 71.9735 77.0725 72.1259 76.686C72.2783 76.2995 72.352 75.8864 72.3425 75.4711V59.8914C72.3498 59.4749 72.2735 59.0612 72.1183 58.6747C71.963 58.2882 71.7318 57.9367 71.4384 57.641C71.145 57.3453 70.7953 57.1111 70.41 56.9529C70.0247 56.7946 69.6116 56.7155 69.1951 56.7195L69.1949 56.7141Z" fill="white"/>
</svg>
