<svg width="106" height="105" viewBox="0 0 106 105" fill="none" xmlns="http://www.w3.org/2000/svg">
<g clip-path="url(#clip0)">
<path d="M53.0079 0.574219C24.1081 0.574219 0.614014 24.0282 0.614014 52.8785C0.614014 81.7287 24.1081 105.168 53.0079 105.168C81.9074 105.168 105.386 81.7287 105.386 52.8785C105.386 24.0282 81.9074 0.574219 53.0079 0.574219ZM53.0079 5.80341C79.0766 5.80341 100.148 26.8544 100.148 52.8785C100.148 78.9026 79.0766 99.9382 53.0079 99.9382C26.9392 99.9382 5.85232 78.9026 5.85232 52.8785C5.85232 26.8544 26.9392 5.80341 53.0079 5.80341ZM32.0492 29.3409C30.5982 29.3409 29.43 30.5071 29.43 31.9557V47.649C29.43 49.0951 30.6 50.2586 32.0492 50.2586H47.7643C49.2153 50.2586 50.3835 49.0924 50.3835 47.6439V31.9557C50.3835 31.9531 50.3838 31.948 50.3835 31.946C50.3835 30.5024 49.2119 29.3413 47.7643 29.3413L32.0492 29.3409ZM58.241 29.3409C56.79 29.3409 55.6219 30.5071 55.6219 31.9557V47.649C55.6219 49.0951 56.7919 50.2586 58.241 50.2586H73.9561C75.4072 50.2586 76.5754 49.0924 76.5754 47.6439V31.9557V31.946C76.5754 30.5024 75.4038 29.3413 73.9561 29.3413L58.241 29.3409ZM34.6683 34.5704H45.1452V45.0291H34.6683V34.5704ZM60.8603 34.5704H71.337V45.0291H60.8603V34.5704ZM32.0492 55.4881C30.5982 55.4881 29.43 56.6543 29.43 58.1029V73.7962C29.43 75.2422 30.6 76.4058 32.0492 76.4058H47.7643C49.2153 76.4058 50.3835 75.2396 50.3835 73.791V58.1029C50.3835 58.1003 50.3838 58.095 50.3835 58.0929C50.3835 56.6492 49.2119 55.4884 47.7643 55.4884L32.0492 55.4881ZM58.241 55.4881C56.79 55.4881 55.6219 56.6543 55.6219 58.1029V73.7962C55.6219 75.2422 56.7919 76.4058 58.241 76.4058H73.9561C75.4072 76.4058 76.5754 75.2396 76.5754 73.791V58.1029V58.0929C76.5754 56.6492 75.4038 55.4884 73.9561 55.4884L58.241 55.4881ZM34.6683 60.7176H45.1452V71.1763H34.6683V60.7176ZM60.8603 60.7176H71.337V71.1763H60.8603V60.7176Z" fill="white"/>
</g>
<defs>
<clipPath id="clip0">
<rect width="106" height="105" fill="white"/>
</clipPath>
</defs>
</svg>
