<svg width="108" height="109" viewBox="0 0 108 109" fill="none" xmlns="http://www.w3.org/2000/svg">
<g clip-path="url(#clip0)">
<path d="M54.008 -0.0923347C24.1494 -0.0923347 -0.124115 24.2807 -0.124115 54.2806C-0.124115 84.2806 24.1494 108.653 54.008 108.653C83.8663 108.653 108.124 84.2806 108.124 54.2806C108.124 24.2807 83.8663 -0.0923347 54.008 -0.0923347ZM54.008 5.35089C80.9416 5.35089 102.712 27.2195 102.712 54.2806C102.712 81.3418 80.9416 103.21 54.008 103.21C27.0744 103.21 5.28798 81.3418 5.28798 54.2806C5.28798 27.2195 27.0744 5.35089 54.008 5.35089ZM78.3206 35.2377C77.612 35.2546 76.9382 35.5502 76.4442 36.0609L45.9004 66.7705L31.5771 52.3796C31.3307 52.1089 31.0323 51.891 30.7 51.7392C30.3676 51.5874 30.0081 51.5047 29.6431 51.4961C29.2781 51.4876 28.9152 51.5533 28.5761 51.6893C28.237 51.8254 27.9289 52.0288 27.6702 52.2877C27.4115 52.5465 27.2076 52.8555 27.0708 53.1956C26.934 53.5356 26.867 53.9001 26.8741 54.2668C26.8811 54.6336 26.9619 54.9951 27.1116 55.3296C27.2613 55.6642 27.4769 55.965 27.7453 56.2137L43.9817 72.5324C44.4888 73.0389 45.1748 73.323 45.8898 73.323C46.6048 73.323 47.2907 73.0389 47.7978 72.5324L80.2813 39.916C80.6758 39.5351 80.9462 39.0429 81.0567 38.5045C81.1672 37.9661 81.1127 37.4067 80.9003 36.9001C80.688 36.3934 80.3278 35.9635 79.8672 35.6667C79.4067 35.3699 78.8674 35.2203 78.3206 35.2377V35.2377Z" fill="white"/>
</g>
<defs>
<clipPath id="clip0">
<rect width="108" height="109" fill="white"/>
</clipPath>
</defs>
</svg>
