<svg width="110" height="111" viewBox="0 0 110 111" fill="none" xmlns="http://www.w3.org/2000/svg">
<g clip-path="url(#clip0)">
<path d="M55.0001 -0.269894C24.5037 -0.269894 -0.272339 24.6055 -0.272339 55.2246C-0.272339 85.8435 24.5037 110.736 55.0001 110.736C85.4963 110.736 110.272 85.8435 110.272 55.2246C110.272 24.6055 85.4963 -0.269894 55.0001 -0.269894V-0.269894ZM55.0001 5.27987C82.5088 5.27987 104.745 27.6051 104.745 55.2246C104.745 82.8439 82.5088 105.186 55.0001 105.186C27.4911 105.186 5.23939 82.8439 5.23939 55.2246C5.23939 27.6051 27.4911 5.27987 55.0001 5.27987ZM74.2988 30.2386C73.5686 30.2515 72.8731 30.5544 72.3644 31.0804C71.8556 31.6065 71.5749 32.3131 71.5835 33.0463V36.7156C67.0908 32.6487 61.2175 30.2821 54.9946 30.2821C41.2899 30.2821 30.1251 41.4917 30.1251 55.2518C30.1251 69.0117 41.2899 80.2214 54.9946 80.2214C68.6997 80.2214 79.8644 69.0117 79.8644 55.2518C79.8972 54.8688 79.8505 54.4829 79.7271 54.119C79.6036 53.7551 79.4062 53.4212 79.1474 53.138C78.8885 52.8547 78.5739 52.6285 78.2234 52.4738C77.8729 52.3191 77.4942 52.2392 77.1113 52.2392C76.7284 52.2392 76.3497 52.3191 75.9992 52.4738C75.6487 52.6285 75.3341 52.8547 75.0752 53.138C74.8163 53.4212 74.619 53.7551 74.4955 54.119C74.3721 54.4829 74.3253 54.8688 74.3582 55.2518C74.3582 66.0133 65.713 74.6713 54.9946 74.6713C44.2763 74.6713 35.653 66.0133 35.653 55.2518C35.653 44.4903 44.2763 35.8322 54.9946 35.8322C60.1108 35.8322 64.896 37.8898 68.4525 41.382H63.3026C62.9384 41.3806 62.5774 41.4514 62.2406 41.5904C61.9037 41.7293 61.5974 41.9337 61.3394 42.1918C61.0813 42.4499 60.8766 42.7567 60.7369 43.0944C60.5972 43.4321 60.5253 43.7942 60.5253 44.1599C60.5253 44.5256 60.5972 44.8877 60.7369 45.2254C60.8766 45.5632 61.0813 45.8697 61.3394 46.1277C61.5974 46.3858 61.9037 46.5902 62.2406 46.7291C62.5774 46.8681 62.9384 46.9389 63.3026 46.9375H74.3366C74.7018 46.9389 75.0637 46.8677 75.4013 46.7279C75.7389 46.588 76.0456 46.3825 76.3036 46.1229C76.5616 45.8634 76.7658 45.5551 76.9045 45.2158C77.0431 44.8766 77.1134 44.5128 77.1113 44.1462V33.0463C77.1156 32.675 77.0458 32.3065 76.9058 31.9629C76.7658 31.6192 76.5585 31.3073 76.2962 31.0455C76.034 30.7837 75.722 30.5776 75.3789 30.439C75.0358 30.3004 74.6685 30.2321 74.2988 30.2386V30.2386Z" fill="white"/>
</g>
<defs>
<clipPath id="clip0">
<rect width="110" height="111" fill="white"/>
</clipPath>
</defs>
</svg>
