<svg width="100" height="100" viewBox="0 0 100 100" fill="none" xmlns="http://www.w3.org/2000/svg">
<path d="M100 50C100 77.609 77.618 100 50 100C22.382 100 0 77.609 0 50C0 22.391 22.382 0 50 0C77.618 0 100 22.391 100 50Z" fill="#CAC5C0"/>
<path d="M49.687 12.026C52.162 16.994 55.191 21.819 58.783 26.501C60.311 28.467 62.062 30.522 64.037 32.648C65.985 34.774 68.147 36.901 70.488 38.992C72.847 41.083 75.429 43.066 78.244 44.943C81.059 46.819 84.087 48.535 87.34 50.072C82.56 52.628 77.824 55.737 73.115 59.418C71.159 60.955 69.112 62.724 66.968 64.743C64.842 66.745 62.751 68.943 60.705 71.319C58.659 73.731 56.693 76.323 54.808 79.146C52.931 81.952 51.225 84.936 49.688 88.099C47.293 83.399 44.309 78.753 40.726 74.143C37.652 70.212 33.766 66.084 29.066 61.723C24.375 57.363 18.693 53.485 12.036 50.072C16.825 47.588 21.561 44.515 26.26 40.851C30.272 37.688 34.409 33.739 38.671 29.003C42.941 24.267 46.604 18.62 49.687 12.026ZM44.183 64.921C46.408 67.745 48.239 70.604 49.687 73.499C51.572 69.478 53.833 66.029 56.468 63.134C59.113 60.221 61.686 57.791 64.161 55.825C66.975 53.627 69.915 51.697 72.998 50.053C68.897 48.194 65.412 45.925 62.562 43.28C59.694 40.635 57.281 38.08 55.325 35.596C53.1 32.791 51.215 29.806 49.687 26.643C47.811 30.735 45.559 34.238 42.968 37.133C40.359 40.046 37.822 42.458 35.346 44.442C32.523 46.658 29.583 48.516 26.509 50.071C30.61 52.198 34.104 54.592 37.008 57.237C39.912 59.882 42.307 62.455 44.183 64.921Z" fill="black"/>
</svg>
