<svg width="100" height="100" viewBox="0 0 100 100" fill="none" xmlns="http://www.w3.org/2000/svg">
<g clip-path="url(#clip0)">
<path d="M50 99.998C77.6142 99.998 100 77.6122 100 49.998C100 22.3837 77.6142 -0.00201416 50 -0.00201416C22.3858 -0.00201416 0 22.3837 0 49.998C0 77.6122 22.3858 99.998 50 99.998Z" fill="#BAB1AB"/>
<path d="M90.695 48.619C90.695 54.137 88.687 57.9 84.675 59.906C83.503 60.492 79.825 61.285 73.638 62.289C69.626 62.959 67.62 64.506 67.62 66.928V77.086C67.62 77.508 67.745 78.801 67.995 80.975L68.372 84.989C68.372 86.244 68.079 88.295 67.493 91.135C65.905 91.469 64.065 91.844 61.975 92.267C61.305 89.756 60.971 88.043 60.971 87.121C60.971 86.705 61.076 86.076 61.284 85.239C61.491 84.405 61.6 83.778 61.6 83.356C61.6 82.776 61.08 81.143 60.041 78.469H58.096C57.838 78.887 57.752 79.43 57.836 80.098C58.17 81.52 58.295 82.731 58.213 83.735C56.791 84.739 54.826 86.076 52.318 87.748C51.732 87.582 51.525 87.498 51.689 87.498V78.594C51.525 78.178 51.105 78.013 50.435 78.092H48.931L47.427 89.879C46.253 89.963 44.835 89.963 43.163 89.879C42.575 87.121 41.532 83.026 40.028 77.59H39.024C38.102 80.519 37.602 82.109 37.518 82.359C37.518 82.693 37.622 83.34 37.832 84.301C38.039 85.263 38.145 85.91 38.145 86.244C38.145 86.494 38.061 87.121 37.895 88.125L37.518 91.135C37.35 91.301 37.141 91.385 36.891 91.385C34.383 91.385 32.709 90.758 31.875 89.506C31.039 88.25 30.703 86.494 30.871 84.235L31.875 69.188C31.875 68.936 31.957 68.602 32.125 68.184C32.289 67.766 32.375 67.473 32.375 67.307C32.375 66.637 31.664 65.299 30.244 63.293C29.996 63.211 28.695 62.916 26.357 62.414C24.933 62.08 22.132 61.496 17.955 60.658C12.184 59.574 9.30099 54.933 9.30099 46.738C9.30099 34.531 14.319 24.373 24.352 16.263C24.766 18.521 25.479 21.529 26.481 25.292C27.235 25.462 28.866 25.837 31.372 26.421C31.876 26.589 34.425 27.509 39.024 29.181C36.68 27.759 33.631 25.462 29.868 22.283C28.446 20.611 27.735 17.812 27.735 13.883C27.735 12.963 29.325 11.875 32.503 10.619C35.343 9.44901 37.478 8.78301 38.899 8.61301C43.413 8.03101 46.883 7.73401 49.309 7.73401C59.758 7.73401 68.2 10.412 74.637 15.763C72.549 18.189 68.953 20.777 63.854 23.536C65.862 23.62 68.788 22.829 72.633 21.153C76.477 19.483 78.108 18.645 77.524 18.645C78.192 18.645 79.532 19.985 81.538 22.659C83.042 24.665 84.253 26.466 85.175 28.05C87.849 32.818 89.646 37.958 90.568 43.476C90.568 45.402 90.609 46.781 90.693 47.615V48.619H90.695ZM42.664 50.877C42.664 47.283 41.096 43.875 37.961 40.654C34.824 37.435 31.459 35.828 27.865 35.828C24.687 35.828 21.888 37.176 19.463 39.867C17.037 42.56 15.826 45.549 15.826 48.83C15.826 51.689 17.205 53.543 19.965 54.383C21.721 54.889 24.184 55.184 27.363 55.266H34.261C39.859 55.35 42.664 53.887 42.664 50.877ZM56.332 66.43V62.541C55.748 61.455 55.162 60.326 54.578 59.154C54.076 57.48 53.156 55.14 51.818 52.129L50.437 66.803C50.437 67.975 50.187 68.559 49.685 68.559C49.351 68.559 49.101 68.477 48.933 68.311C48.347 59.448 48.054 55.602 48.054 56.77V52.383C47.886 52.129 47.679 52.004 47.429 52.004C44.585 54.934 43.165 59.656 43.165 66.176C43.165 69.772 43.495 71.987 44.167 72.824C44.837 72.658 45.589 72.365 46.425 71.947C46.759 71.779 47.72 71.695 49.312 71.695C50.896 71.695 52.822 72.197 55.078 73.199C55.914 73.199 56.332 70.943 56.332 66.43ZM84.676 48.955C84.676 45.588 83.422 42.58 80.914 39.93C78.404 37.282 75.519 35.955 72.262 35.955C68.75 35.955 65.467 37.562 62.416 40.781C59.363 44 57.838 47.365 57.838 50.877C57.838 53.805 59.258 55.266 62.102 55.266H76.524C81.957 55.184 84.676 53.08 84.676 48.955Z" fill="#0D0F0F"/>
</g>
<defs>
<clipPath id="clip0">
<rect width="100" height="100" fill="white"/>
</clipPath>
</defs>
</svg>
