<svg width="50" height="71" viewBox="0 0 50 71" fill="none" xmlns="http://www.w3.org/2000/svg">
<path d="M5.66472 70.5659C4.41607 70.1812 3.94457 69.563 4.18799 68.6299C4.3999 67.8175 6.2859 67.1894 9.19565 66.962C10.6654 66.8472 12.3552 66.5756 12.9508 66.3584C16.0553 65.2266 19.0895 62.9051 19.8503 61.0797C20.051 60.5983 20.4336 57.4207 20.7554 53.5644C21.2694 47.404 21.2813 46.8482 20.9083 46.435C20.6858 46.1885 18.8537 45.1593 16.837 44.1478C13.6112 42.5298 12.9382 42.0794 11.2406 40.4027C9.48929 38.673 9.20072 38.2418 8.11946 35.7384C6.8002 32.684 4.53312 25.9792 3.84387 23.0934C3.43042 21.3623 3.28923 21.124 1.83861 19.7081C0.667117 18.5647 0.234782 17.9506 0.104308 17.2446C-0.208542 15.5519 0.157229 14.536 1.54372 13.2468L2.80931 12.0701L2.63023 6.9721C2.45627 2.01979 2.4663 1.85481 2.98104 1.1988C3.27248 0.827381 3.92791 0.407395 4.43756 0.265485C5.70893 -0.0884951 44.2916 -0.0884951 45.563 0.265485C46.0726 0.407395 46.7306 0.829915 47.0252 1.20445C47.5456 1.86619 47.5554 2.01639 47.3711 6.52453C47.2667 9.07604 47.1939 11.3772 47.2092 11.6381C47.2244 11.8991 47.7963 12.6325 48.4797 13.2681C49.8421 14.5349 50.2075 15.5606 49.8962 17.2446C49.7656 17.9514 49.3326 18.5655 48.153 19.7168C46.696 21.1389 46.5517 21.3813 46.1378 23.1021C45.4238 26.0708 43.1759 32.7454 41.8821 35.7384C40.8003 38.2409 40.5106 38.6737 38.76 40.4027C37.0623 42.0794 36.3893 42.5298 33.1635 44.1478C31.1468 45.1593 29.3147 46.1885 29.0922 46.435C28.7192 46.8482 28.7312 47.4066 29.2457 53.5982C29.5591 57.3693 29.9527 60.6733 30.1435 61.1346C30.8703 62.892 33.9766 65.2408 37.0497 66.3569C37.6453 66.5732 39.3527 66.8526 40.8439 66.9778C43.7822 67.2245 45.604 67.8302 45.8126 68.6299C46.0636 69.5922 45.5899 70.1757 44.2288 70.5809C42.3209 71.1489 7.513 71.1353 5.66472 70.5659V70.5659Z" fill="white"/>
</svg>
