<svg width="62" height="82" viewBox="0 0 62 82" fill="none" xmlns="http://www.w3.org/2000/svg">
<path d="M25.351 81.8371C25.249 81.7357 25.2533 81.4236 25.3603 81.1434C25.4675 80.8632 29.4122 74.5988 34.1263 67.2223C38.8405 59.8459 42.8689 53.4921 43.0784 53.1027C43.6842 51.9767 43.393 50.5085 42.4614 49.9912C41.727 49.5834 39.9585 49.8082 22.4562 52.534C11.8965 54.1786 2.89166 55.5201 2.44556 55.5153C1.14042 55.501 0 54.4075 0 53.1703C0 51.858 1.4166 49.1379 9.9545 34.0556C17.8232 20.1555 17.6874 20.7003 13.4981 19.8411C12.1251 19.5595 11.5403 18.5988 11.8926 17.2036C12.195 16.0057 20.11 3.07967 21.3091 1.82527C21.8947 1.21273 22.9038 0.553715 23.5516 0.360774C25.0402 -0.0825497 57.2642 -0.135454 58.4257 0.303525C59.5699 0.735979 59.9576 1.63753 59.478 2.75058C59.2619 3.25209 51.411 11.5842 42.0317 21.2663C32.6523 30.9485 24.807 39.1953 24.5976 39.5925C24.2912 40.1739 24.2993 40.4267 24.6392 40.8887C25.0456 41.4413 25.4764 41.3794 36.1802 39.2327C42.2956 38.0062 47.8224 37.0038 48.4621 37.0052C50.0046 37.0085 50.632 37.6876 51.491 40.2843C53.0914 45.1219 53.6054 45.5053 58.0593 45.1841C61.3702 44.9454 62.2692 45.2736 61.9346 46.599C61.831 47.0094 59.333 49.6931 56.3836 52.5626C53.4341 55.4322 47.1827 61.5359 42.4916 66.1265C25.7358 82.523 25.8946 82.3774 25.351 81.8371H25.351Z" fill="white"/>
</svg>
