<svg width="85" height="66" viewBox="0 0 85 66" fill="none" xmlns="http://www.w3.org/2000/svg">
<path d="M21.6546 65.6371C18.789 65.1665 0.749457 61.0763 0.283645 60.7912C-0.348004 60.4045 0.373512 59.8969 1.97554 59.6008C3.38836 59.3396 13.6167 56.7567 17.9182 55.5749C19.7922 55.06 20.6145 53.8809 19.9531 52.6569C19.5702 51.9484 10.5662 44.1008 2.40543 37.363C-0.066396 35.3222 -0.568995 34.5329 0.603366 34.5329C0.956913 34.5329 6.49887 36.6327 12.9188 39.1992C19.3388 41.7656 24.9332 43.8013 25.3508 43.7229C27.0923 43.396 26.5032 41.236 21.0323 27.8877C15.834 15.2044 14.9955 12.6267 16.304 13.352C16.6402 13.5384 21.0426 19.1383 26.0872 25.7964C35.2982 37.9535 36.1107 38.7825 37.3567 37.2956C37.6546 36.9401 38.6399 29.4219 39.7379 19.1271C41.6498 1.20049 41.8232 0 42.5008 0C43.117 0 43.2479 0.931142 45.2165 19.3196C47.1588 37.4632 47.3381 38.3029 49.1473 37.7342C49.5924 37.5943 54.1371 31.9843 59.2467 25.2675C64.3563 18.5507 68.7014 13.0551 68.9023 13.0551C69.736 13.0551 69.0237 15.1623 64.1274 27.1802C61.3002 34.1195 58.8192 40.3424 58.6139 41.009C58.1673 42.4595 58.7608 43.7978 59.8507 43.7978C60.2675 43.7978 65.5704 41.7835 71.635 39.3215C82.5536 34.889 85 34.0672 85 34.8319C85 35.0489 82.094 37.6762 78.5421 40.6703C64.4716 52.5313 64.1958 52.8087 64.9975 54.2924C65.5125 55.2455 65.8498 55.3551 76.0709 57.8911C85.4896 60.2281 85.2454 60.1513 84.7522 60.6211C84.1745 61.1714 69.9844 64.3884 61.5941 65.8712C59.524 66.2371 59.2765 65.6942 59.265 60.7632C59.2563 57.0181 59.0822 55.7938 58.2723 53.7852C56.8984 50.3777 53.4378 46.5734 49.785 44.9634C44.8583 42.7919 39.3625 42.9266 35.1827 44.96C28.4764 48.2224 25.0673 54.2438 25.6383 61.7858C25.8759 64.9247 25.8089 65.2584 25.0764 65.6813C23.9357 66.3398 22.6448 65.7996 21.6546 65.637V65.6371Z" fill="white"/>
</svg>
