<svg width="82" height="64" viewBox="0 0 82 64" fill="none" xmlns="http://www.w3.org/2000/svg">
<path d="M29.9381 63.7515C18.7177 62.6765 7.68939 59.8084 3.07404 56.765C-1.76826 53.5721 -1.02153 50.2397 6.25342 42.577C12.7857 35.6965 15.7908 29.931 20.0319 16.1424C22.8172 7.08684 25.3875 1.39427 27.1251 0.432711C29.8084 -1.05217 31.662 1.09699 35.2138 9.81128C38.9891 19.0738 42.2226 24.6911 46.2143 28.9215C47.4193 30.1985 48.5909 31.0675 49.1077 31.0675C50.1289 31.0675 51.6254 29.2872 54.3096 24.8787C56.4827 21.3098 58.1434 20.188 60.6728 20.5804C63.0152 20.9438 64.7838 23.2598 66.8623 28.6858C67.8379 31.2323 69.2373 34.5114 69.9721 35.9728C71.3508 38.7143 74.8544 43.7329 75.4003 43.7481C76.0295 43.7656 80.7483 48.4855 81.3994 49.7486C83.3735 53.5784 80.4579 56.9605 72.9966 59.4956C64.0288 62.5426 55.9247 63.7622 43.2699 63.9693C38.0756 64.0544 32.0763 63.9563 29.9381 63.7515V63.7515Z" fill="white"/>
</svg>
