<svg width="72" height="64" viewBox="0 0 72 64" fill="none" xmlns="http://www.w3.org/2000/svg">
<path d="M24.4259 62.6157C22.8369 61.027 22.6443 59.7909 23.5751 57.1535C24.4141 54.7762 25.5639 53.5281 29.215 51.0313C31.0604 49.7693 34.2985 47.43 36.4108 45.833C40.0968 43.0462 41.9604 41.8876 53.0403 35.495C61.1063 30.8412 72 26.4999 72 27.9392C72 28.6263 69.4077 30.4793 65.7767 32.3877C61.1147 34.8381 48.0167 43.7056 44.1209 47.049C41.052 49.6828 36.9781 54.1212 32.6931 59.4993C28.8157 64.3657 26.8991 65.0882 24.4259 62.6157V62.6157ZM8.65634 58.2048C7.64198 57.1163 7.42521 55.7003 7.91319 53.3503C8.54169 50.3238 8.44635 47.3455 7.67016 45.7571C7.11482 44.6207 6.4994 44.1467 3.97086 42.9083C2.30265 42.0912 0.722755 41.1288 0.459998 40.7695C-0.606018 39.3121 0.23747 35.6889 2.4039 32.4196C4.20802 29.697 10.8146 22.2561 14.7897 18.4696C18.9028 14.5516 21.5249 12.7586 24.7452 11.6618C27.1833 10.8314 28.5918 10.1745 36.5313 6.16496C45.9067 1.43021 55.2559 -1.3268 55.2559 0.643217C55.2559 0.978028 53.4114 1.97058 50.2146 3.35607C43.2527 6.37336 42.1127 7.04968 37.0282 11.1786C34.5763 13.1696 30.7014 16.2118 28.4172 17.9389C24.0522 21.2393 20.7146 24.5814 17.2518 29.1194C12.8006 34.9528 12.3269 36.1754 13.667 38.3727C14.0623 39.021 14.3799 40.0335 14.3858 40.6227C14.4001 42.0496 15.0965 41.5968 15.7708 41.0676C16.7699 40.2835 18.5171 38.6977 21.4075 35.9775C29.0526 28.7826 39.2461 21.2831 46.3127 17.6545C50.8688 15.315 63.1086 10.2849 66.5914 9.32066C69.786 8.43622 71.6399 8.34989 71.6399 9.08559C71.6399 9.72646 70.7504 10.2668 63.1546 14.2396C52.6898 19.7129 48.3831 22.8296 40.1321 30.9002C35.6625 35.2723 27.725 42.4414 22.0956 47.1909C21.4456 47.7392 19.1115 50.2864 16.9085 52.8512C14.7056 55.4159 12.4858 57.8427 11.9756 58.2439C10.7784 59.1854 9.55674 59.171 8.65634 58.2048V58.2048Z" fill="white"/>
</svg>
