<svg width="55" height="110" viewBox="0 0 55 110" fill="none" xmlns="http://www.w3.org/2000/svg">
<path d="M54.4231 42.226C53.9572 30.0209 52.9036 25.3863 52.2055 25.3863C51.4968 25.3863 51.2738 32.1465 50.3426 38.1204C49.4109 44.0805 47.7707 50.8397 47.7707 50.8397L43.5787 49.2483C43.5787 49.2483 42.4035 40.6238 41.9381 30.2882C41.4831 19.9523 41.1284 10.9254 39.8316 10.9254C38.5662 10.9146 38.3234 19.4124 37.8576 30.4243C37.3914 41.4299 35.762 47.5254 35.762 47.5254L31.9146 46.9911C31.9146 46.9911 30.0513 37.4452 29.3524 8.28599C29.1904 1.38479 27.5 -2.44658e-06 27.5 -2.44658e-06C27.5 -2.44658e-06 25.8088 1.38479 25.6468 8.28599C24.9487 37.4452 23.0749 46.9911 23.0749 46.9911L19.2373 47.5254C19.2373 47.5254 17.5978 41.4299 17.1319 30.4243C16.6661 19.4124 16.4327 10.9146 15.1579 10.9254C13.8716 10.9254 13.5169 19.9523 13.0406 30.2882C12.5856 40.6238 11.4205 49.2483 11.4205 49.2483L7.22857 50.8397C7.22857 50.8397 5.58905 44.0805 4.65741 38.1204C3.72616 32.1465 3.49268 25.3863 2.79452 25.3863C2.09561 25.3863 1.04313 30.0209 0.576936 42.226C0.11112 54.4157 0 56.7987 0 56.7987C0 56.7987 13.7601 62.6413 19.1164 77.7617C24.4829 92.8732 25.8395 105.994 25.8799 107.451C25.9503 109.712 27.5 110 27.5 110C27.5 110 28.8469 109.712 29.1201 107.451C29.2918 106.005 30.5171 92.8732 35.8828 77.7617C41.2399 62.6413 55 56.7987 55 56.7987C55 56.7987 54.8881 54.4157 54.4231 42.226" fill="white"/>
</svg>
