<svg width="62" height="78" viewBox="0 0 62 78" fill="none" xmlns="http://www.w3.org/2000/svg">
<path d="M31.0621 77.6406C30.3118 77.3007 30.0537 76.9842 30.0537 76.404C30.0537 75.4128 30.8892 74.8797 33.4444 74.2406C34.5412 73.9662 35.6234 73.5892 35.8491 73.4028C36.5529 72.8215 36.314 71.6958 35.308 70.8534C32.9212 68.8547 28.3195 68.6356 23.3824 70.2858C19.5646 71.5619 17.9567 71.7321 15.1543 71.1571C11.5739 70.4223 8.1442 68.5822 5.4459 65.9483C2.73734 63.3044 1.40857 61.0929 0.571479 57.8355C-0.852367 52.2948 0.435923 46.6272 3.86186 43.3602C6.15424 41.1742 10.4059 39.9418 11.4277 41.1671C11.7417 41.5436 11.5703 41.7616 10.4134 42.4571C6.38561 44.8784 6.02726 50.3858 9.64951 54.1975C12.6895 57.3965 16.5072 58.624 23.4272 58.6275C31.4842 58.6316 34.6423 59.2929 37.7051 61.617C39.35 62.8651 41.1514 65.2506 41.5822 66.751C42.1009 68.5578 42.3906 68.8776 43.1449 68.4758C44.0883 67.9733 44.9331 65.7987 44.9408 63.8528C44.9585 59.376 41.9015 54.9254 37.3083 52.7411C35.5136 51.8877 34.5309 51.6797 27.1633 50.594C24.7816 50.243 23.7295 49.7808 22.1296 48.3828C20.9114 47.3183 20.1244 46.0185 20.1244 45.071C20.1244 44.1543 20.4483 44.0966 22.508 44.6458C24.0433 45.0552 24.5522 45.0779 25.2988 44.7701C26.6726 44.2038 27.4032 42.7459 27.409 40.5597C27.4206 36.2007 23.7732 33.2364 15.6252 30.9828C11.1357 29.7411 7.12668 26.7221 5.45493 23.3242C3.67691 19.7104 3.15579 14.7409 4.15459 10.9244C6.00647 3.84846 12.6344 -0.483546 20.803 0.0431669C24.4799 0.280258 27.2807 1.47965 26.8732 2.64267C26.8305 2.76444 25.3993 2.88325 23.6927 2.9067C21.6375 2.93496 20.1184 3.12495 19.1935 3.46937C14.6845 5.14853 12.7926 8.69828 14.0602 13.1009C14.8182 15.734 17.0226 17.7279 22.0234 20.3039C27.0281 22.882 27.1934 22.9998 31.2812 26.9033C35.2073 30.6524 36.6192 31.5209 38.7873 31.5209C43.7964 31.5209 45.4755 25.4668 41.7006 21.0162C40.6364 19.7614 39.7949 19.3144 35.4838 17.7137C32.68 16.6726 32.0529 16.3247 31.9715 15.765C31.7776 14.4317 34.0378 14.1311 38.0568 14.9556C42.7392 15.9163 47.8632 18.9162 52.25 23.2652C56.4383 27.4174 59.0035 31.935 60.603 37.9761C64.2694 51.823 60.5746 65.6107 51.215 73.009C48.9117 74.8296 45.0738 76.655 42.155 77.3181C38.9135 78.0546 32.3942 78.2441 31.0621 77.6406V77.6406Z" fill="white"/>
</svg>
